<svg width="435" height="392" viewBox="0 0 435 392" fill="none" xmlns="http://www.w3.org/2000/svg">
<path d="M235.929 98.1688C238.732 98.0453 242.975 98.7846 245.492 99.6812C265.776 106.907 275.657 123.858 267.776 144.702C260.189 164.768 246.7 179.827 232.701 195.398C221.037 208.372 209.866 221.01 194.131 228.713C196.719 224.943 199.323 219.469 201.615 215.316C204.426 210.224 207.74 203.949 209.756 198.565C214.762 185.193 215.333 168.275 213.147 154.261C218.503 152.438 223.776 151.511 229.271 150.265C232.045 149.637 235.459 148.351 238.175 147.957C237.079 144.843 236.207 140.706 235.056 137.202C228.013 138.671 215.972 142.546 209.727 142.942C208.804 137.128 206.883 129.404 205.299 123.781C203.548 124.787 197.123 126.516 194.841 127.185L194.331 127.433C194.01 129.089 198.092 144.148 198.996 146.122C194.492 148.081 181.561 150.72 176.365 151.809C177.372 158.552 177.669 158.65 180.248 164.782C186.918 161.675 195.569 158.893 202.679 157.095C204.433 178.547 207.192 184.158 196.26 204.32C182.869 198.288 169.535 190.467 157.478 182.116C137.906 168.56 124.78 146.468 141.164 124.268C154.394 106.341 173.467 108.535 190.695 118.512C192.862 119.767 195.044 120.816 197.068 122.346C199.28 120.319 202.934 116.316 205.058 113.95C214.411 103.534 221.962 99.2607 235.929 98.1688Z" fill="#9D0000"/>
<path d="M280.346 202.804C282.363 203.225 281.628 203.562 282.062 205.361C277.27 219.355 272.305 229.439 262.826 240.674C268.427 247.43 277.452 261.286 279.994 269.875C281.044 273.423 272.577 277.549 269.898 278.94C259.581 284.3 250.483 286.542 238.928 287.243C236.959 281.95 235.436 276.517 233.272 271.08C231.67 267.058 228.334 259.547 227.336 255.8C210.959 256.391 194.37 255.013 182.575 242.388C192.398 244.562 205.94 244.267 215.831 242.711C242.814 238.465 264.337 224.685 280.346 202.804ZM258.242 260.987C255.511 257.862 253.25 254.058 250.42 250.968C249.482 249.944 248.252 248.612 247.57 247.436C242.228 248.444 238.801 250.076 235.405 254.629C237.558 256.225 243.395 265.476 244.568 267.929C246.287 265.33 248.61 262.384 251.82 261.625C253.379 261.256 257.209 261.549 258.242 260.987ZM259.466 261.5C260.417 262.615 262.909 259.829 264.164 259.589C266.317 259.177 268.025 260.421 270.185 260.495C269.262 259.089 268.278 257.718 267.3 256.357C261.734 248.608 259.262 243.978 249.042 247.385C250.975 249.742 258.118 259.058 259.466 261.5Z" fill="#046802"/>
<path d="M235.405 254.629C237.558 256.225 243.395 265.476 244.568 267.929C246.287 265.33 248.61 262.384 251.82 261.625C253.379 261.256 257.209 261.549 258.242 260.987C258.902 261.581 258.519 261.39 259.466 261.5C260.417 262.615 262.909 259.829 264.164 259.589C266.317 259.177 268.025 260.421 270.185 260.495C271.353 261.646 272.59 263.008 273.731 264.209C268.728 264.31 257.173 266.57 252.209 268.372C250.484 268.998 246.062 271.813 244.219 272.963C241.063 268.963 234.984 262.201 234.292 256.971C234.155 255.94 234.74 255.329 235.405 254.629Z" fill="#725109"/>
<path d="M247.57 247.436C248.171 247.372 248.451 247.29 249.042 247.385C250.975 249.742 258.118 259.058 259.466 261.5C258.519 261.39 258.902 261.581 258.242 260.987C255.511 257.862 253.25 254.058 250.42 250.968C249.482 249.944 248.252 248.612 247.57 247.436Z" fill="#010301"/>
<path d="M134.112 171.733C134.958 172.856 137.913 187.597 138.573 190.169C145.139 215.748 163.42 235.537 185.254 249.444C191.127 253.185 197.325 256.161 203.74 259.189C192.793 259.96 183.698 257.239 173.002 255.967C172.693 256.092 172.799 256.079 172.539 256.411C172.057 264.141 172.145 270.664 173.756 278.236C168.974 278.728 164.341 279.421 159.509 279.55C149.311 279.822 140.038 275.759 130.466 272.732C131.364 264.15 131.829 255.172 132.7 246.922C134.372 232.639 135.979 223.111 131.541 209.129C128.739 200.301 131.247 180.384 134.112 171.733Z" fill="#F9CA0D"/>
<path d="M145.764 237.586C150.721 237.525 153.873 241.5 155.268 245.83C157.914 244.2 160.415 243.251 163.537 244.136C165.913 244.809 167.93 246.389 169.151 248.535C170.252 250.513 170.509 252.852 169.863 255.023C168.307 260.402 162.481 263.28 157.982 265.776C153.95 267.976 149.752 269.98 145.677 272.169C144.025 269.645 143.166 267.437 142.11 264.629C139.08 256.569 131.823 240.314 145.764 237.586Z" fill="#010301"/>
<path d="M145.093 238.801C150.637 238.476 152.731 241.853 154.229 246.525C153.498 249.464 151.394 254.949 149.943 257.766C149.613 258.407 148.579 258.444 147.787 258.594L147.716 259.046C149.459 261.151 148.496 262.127 147.792 264.6C148.72 263.596 149.128 262.787 149.872 261.66C150.528 260.667 150.817 260.856 151.974 260.699L152.144 260.375L150.721 258.976C153.297 254.137 154.967 242.359 163.545 245.347C166.003 246.203 167.605 247.973 168.693 250.316C170.511 259.31 159.698 263.532 153.243 266.872C150.601 268.227 148.015 269.692 145.494 271.262C143.115 260.298 131.632 245.688 145.093 238.801Z" fill="#F9CA0D"/>
<path d="M275.419 120.207C276.823 120.705 281.313 125.224 282.735 126.539C289.905 133.17 296.832 140.39 300.773 149.472C303.126 154.928 304.823 161.026 308.788 165.619C318.327 176.668 330.645 187.518 338.765 199.673C338.652 199.797 338.538 199.92 338.422 200.042C330.246 208.518 320.993 216.769 309.881 220.655C307.305 221.556 305.017 222.769 302.222 222.82C298.875 221.693 296.031 214.983 294.587 211.782C293.092 213.447 291.216 215.147 289.639 216.853C284.717 222.177 278.791 228.765 272.685 232.75C276.538 226.488 281.81 213.601 284.104 206.689C290.775 186.587 292.586 164.05 285.86 143.711C283.037 135.174 279.453 128.18 275.419 120.207Z" fill="#0152B6"/>
<path d="M312.382 189.885C315.809 189.922 319.382 187.686 323.668 188.466C326.032 190.374 327.796 192.573 328.542 195.56C327.719 198.704 326.75 200.664 323.867 202.385L323.639 202.518C321.083 203.637 312.663 205.561 309.594 206.329L307.9 204.839C307.324 204.001 307.076 203.815 306.297 203.147C304.779 202.272 306.375 197.394 305.91 195.868C306.452 195.513 308.977 192.347 309.59 191.609C310.338 191.032 311.541 190.379 312.382 189.885Z" fill="#BF8411"/>
<path d="M320.66 197.056C322.223 198.16 323.083 200.72 323.639 202.518C321.083 203.637 312.663 205.561 309.594 206.329L307.9 204.839C307.324 204.001 307.076 203.815 306.297 203.147C307.295 199.048 316.897 197.47 320.66 197.056Z" fill="#F2DF98"/>
<path d="M323.668 188.466C326.032 190.374 327.796 192.573 328.542 195.56C327.719 198.704 326.75 200.664 323.867 202.385L323.639 202.518C323.083 200.72 322.223 198.16 320.66 197.056C318.18 194.215 321.827 190.815 323.668 188.466Z" fill="#FEFDFE"/>
<path d="M300.27 191.616C303.992 190.69 304.53 192.737 305.91 195.868C306.375 197.394 304.779 202.272 306.297 203.147C307.076 203.815 307.324 204.001 307.9 204.839C307.94 205.95 308.624 206.425 309.413 207.254C310.599 207.034 312.086 206.464 312.925 207.424C312.767 209.36 306.941 212.827 305.139 213.877C305.744 211.892 306.152 210.282 306.621 208.275L303.986 206.403L303.292 204.087C297.798 202.446 296.823 202.067 293.155 197.607C295.189 195.18 297.666 193.361 300.27 191.616Z" fill="#F9CA0D"/>
<path d="M303.149 176.859C304.539 178.644 305.916 180.438 307.28 182.243L312.065 178.432L314.635 180.821L309.029 185.347C310.043 186.529 311.701 188.478 312.382 189.884C311.541 190.378 310.338 191.031 309.59 191.608C308.977 192.346 306.452 195.512 305.91 195.867C304.53 192.736 303.992 190.689 300.27 191.615C299.939 190.829 299.461 189.926 299.077 189.149C299.379 187.37 302.889 185.175 304.526 183.951C302.654 182.151 301.863 180.556 300.316 178.656C301.252 178.061 302.207 177.438 303.149 176.859Z" fill="#F9CA0D"/>
<path d="M299.077 189.15C302.63 190.618 303.329 189.47 306.198 187.32C307.283 188.706 308.458 190.281 309.59 191.609C308.977 192.347 306.452 195.513 305.91 195.868C304.53 192.737 303.992 190.69 300.27 191.616C299.939 190.83 299.461 189.927 299.077 189.15Z" fill="#215C34"/>
<path d="M129.769 276.834C133.344 278.094 137.02 279.243 140.551 280.61C143.783 281.861 146.959 283.301 150.191 284.595C145.705 300.146 138.513 307.803 125.963 317.414C127.084 318.166 128.409 319.572 129.405 320.558C143.012 314.71 147.884 302.502 152.849 289.699C155.863 281.927 167.091 282.9 174.282 282.387C174.431 291.02 174.032 299.655 173.086 308.238C172.995 310.287 172.466 313.2 172.174 315.262C170.723 325.524 167.69 335.139 164.359 344.909C158.593 338.349 157.898 330.669 148.554 325.651C136.662 319.264 120.352 324.56 108 328.292C109.421 324.558 113.897 317.144 115.984 312.75C121.845 300.407 125.585 289.755 129.769 276.834Z" fill="#F9CA0D"/>
<path d="M283.968 279.059C291.218 293.47 293.292 309.772 293.444 325.7C293.496 331.114 293.536 338.578 292.513 343.901C283.616 336.93 277.602 332.003 265.373 333.409C257.082 334.362 250.389 338.312 243.731 343.147C242.138 344.303 238.609 347.476 237.226 348.358C235.875 349.691 234.368 350.729 232.839 351.848C233.51 350.622 234.047 349.357 234.615 348.081C241.408 333.164 244.656 309.673 241.025 293.582C249.106 293.24 255.586 291.882 263.466 290.222C263.844 292.552 263.84 294.977 263.909 297.325C264.167 306.045 263.359 314.783 258.003 322.048C256.296 324.365 253.287 327.581 250.886 329.307C252.72 330.872 254.333 332.472 256.056 334.155C269.996 327.04 270.22 309.129 269.614 295.497C269.496 292.837 268.895 290.039 268.645 287.376C273.509 284.466 278.625 280.871 283.968 279.059Z" fill="#046802"/>
<path d="M234.615 348.081C236.015 349.04 235.307 348.357 237.226 348.358C235.875 349.691 234.368 350.729 232.839 351.848C233.51 350.622 234.047 349.357 234.615 348.081Z" fill="#1D7E0A"/>
<path d="M342.818 205.49C343.773 205.807 347.285 210.787 348.071 211.819C357.367 224.027 365.596 237.162 371.08 251.546C372.225 254.551 373.531 257.466 374.403 260.571C367.395 257.119 359.435 253.834 351.523 254.721C338.131 256.224 330.326 268.028 323.268 278.123C322.225 279.616 321.155 281.228 319.985 282.629L319.807 282.841C319.636 281.98 319.509 280.948 319.413 280.063C318.62 272.808 316.982 265.911 315.069 258.873C314.212 253.201 307.311 233.267 304.603 228.607L304.716 228.577C307.951 227.76 311.777 226.299 315.023 225.183C318.689 223.922 322.049 222.901 325.757 221.789C325.936 222.261 326.113 222.734 326.287 223.208C330.824 235.537 332.046 250.144 326.424 262.304C329.146 262.893 332.259 264.08 333.638 260.88C339.232 247.899 334.013 232.233 329.734 219.677C331.913 215.503 339.11 208.356 342.818 205.49Z" fill="#0152B6"/>
<path d="M159.496 49.1592C161.518 49.7142 167.746 57.891 172.113 59.5223C186.34 64.8368 207.065 58.4782 210.77 78.8079C213.051 91.3215 209.551 100.578 202.473 110.929C200.272 114.097 199.006 115.435 195.803 117.614C197.087 111.528 199.968 98.8036 199.077 93.1836C197.266 81.7495 181.773 80.1606 173.612 74.1823C163.415 66.7119 161.573 60.8312 159.496 49.1592Z" fill="#ED6E16"/>
<path d="M132.545 74.3574C133.996 74.6488 138.007 78.42 139.504 79.5453C154.425 90.7655 171.022 78.7195 187.401 83.2429C199.833 86.6762 198.595 99.8838 195.55 109.921C195.199 110.926 193.785 113.481 193.231 114.561C191.62 111.832 189.961 107.42 187.834 105.172C178.241 95.0388 160.9 102.65 148.884 97.307C137.214 92.1174 136.53 84.052 132.545 74.3574Z" fill="#ED6E16"/>
<path d="M227.877 209.67C234.789 208.173 241.601 212.583 243.063 219.503C244.526 226.423 240.081 233.212 233.153 234.64C226.276 236.056 219.545 231.65 218.094 224.78C216.642 217.909 221.014 211.157 227.877 209.67Z" fill="#046802"/>
<path d="M273.063 163.968C280.05 163.201 286.325 168.271 287.043 175.264C287.761 182.257 282.648 188.497 275.65 189.166C268.721 189.829 262.556 184.776 261.845 177.852C261.134 170.927 266.144 164.727 273.063 163.968Z" fill="#0152B6"/>
<path d="M168.819 202.793C175.702 202.046 181.909 206.968 182.75 213.84C183.592 220.712 178.756 226.986 171.896 227.921C167.374 228.538 162.869 226.673 160.107 223.04C157.345 219.406 156.753 214.567 158.557 210.375C160.361 206.182 164.282 203.286 168.819 202.793Z" fill="#F9CA0D"/>
<path d="M195.174 58.3692C203.912 58.0669 214.013 61.0753 219.029 68.6939C223.607 75.648 221.65 86.553 219.447 94.1139C218.598 97.0282 217.312 98.3262 214.883 99.9641C213.387 100.981 211.495 102.06 209.925 103.01C216.621 88.744 217.075 71.8997 202.185 62.8233C200.429 61.7527 195.683 60.0865 195.174 58.3692Z" fill="#ED6E16"/>
<path d="M137.759 96.7139C141.787 96.8562 148.67 100.553 153.728 101.136C158.097 101.85 162.354 101.705 166.76 101.803C172.373 101.928 179.162 100.915 183.933 104.485C185.485 105.646 188.529 109.108 187.899 111.094C187.029 111.426 187.298 111.321 186.217 111.06C170.304 105.666 168.301 105.526 151.902 109.49C145.467 106.54 141.511 102.535 137.759 96.7139Z" fill="#ED6E16"/>
<path d="M164.125 33L164.839 33.1501C164.939 33.5349 165.07 33.7463 164.743 34.176C162.715 36.8398 160.818 38.5329 159.196 41.6245C158.004 43.9448 157.235 46.4595 156.927 49.05C155.584 60.0605 162.725 66.3473 168.598 73.9133C167.562 73.3706 166.833 72.9434 165.847 72.3147C161.063 69.0543 157.251 65.7527 154.573 60.4746C151.792 55.0467 151.34 48.7208 153.32 42.9523C155.266 37.2264 159.055 35.5007 164.125 33Z" fill="#ED6E16"/>
<path d="M223.925 71.2998C229.916 72.4904 228.884 90.1013 228.607 94.8511C230.815 89.5999 231.245 87.6999 232.094 82.0501L232.375 81.9485C234.69 83.2487 234.977 87.0378 235.107 89.3601C235.088 95.9599 233.006 93.8357 228.975 93.9574C227.352 94.0064 222.578 97.1964 220.592 96.1648C220.575 94.6513 221.892 91.6255 222.366 89.9652C223.816 84.8834 224.997 76.8178 223.99 71.6227L223.925 71.2998Z" fill="#ED6E16"/>
<path d="M137.904 57.4648C138.762 59.305 136.168 63.8787 138.04 67.7931C139.177 70.1715 139.216 70.3678 141.184 73.035C142.455 74.7568 146.986 78.6073 147.034 79.8718C146.349 80.027 145.775 79.6263 145.117 79.3038C143.594 78.8724 140.053 76.5441 138.828 75.5389C132.217 70.1118 132.697 63.704 137.904 57.4648Z" fill="#ED6E16"/>
<path d="M280.346 202.804C281.626 200.897 282.652 199.149 283.858 197.295C283.32 200.162 282.879 202.551 282.062 205.361C281.628 203.562 282.363 203.225 280.346 202.804Z" fill="#215C34"/>
</svg>
